<svg xmlns="http://www.w3.org/2000/svg" viewBox="0 0 48 48" fill="none" aria-label="Dirt & Leaf logo">
  <rect width="48" height="48" rx="12" fill="#141210"/>
  <path d="M24 42C17 37.8 13 31.1 13 23.6C13 17 17.4 11.8 24 10c6.6 1.8 11 7 11 13.6c0 7.5-4 14.2-11 18.4Z" fill="#86b495" opacity=".22"/>
  <path d="M24 38V14" stroke="#86b495" stroke-width="3.5" stroke-linecap="round"/>
  <path d="M24 20c-4.8 0-9.2-2.6-11-7 7.6-.6 13.5 1.1 16 7" stroke="#86b495" stroke-width="3.5" stroke-linecap="round" stroke-linejoin="round"/>
  <path d="M24 24c4.8 0 9.2-2.6 11-7-7.6-.6-13.5 1.1-16 7" stroke="#86b495" stroke-width="3.5" stroke-linecap="round" stroke-linejoin="round"/>
</svg>
